# xmcd
#
# Track frame offsets:
#	150
#	16810
#	31199
#	44631
#	64326
#	80881
#	99516
#	122480
#	138823
#
# Disc length: 2098 seconds
#
# Revision: 0
# Processed by: cddbd v1.4PL0 Copyright (c) Steve Scherf et al.
# Submitted via: audiograbber 1.81.03
#
DISCID=72083009
DTITLE=Johnny Winter - Nothin' But The Blues
DYEAR=1977
DGENRE=
TTITLE0=Tired Of Tryin'
TTITLE1=TV Mama
TTITLE2=Sweet Love And Evil Women
TTITLE3=Everybody's Blues
TTITLE4=Drinkin' Blues
TTITLE5=Mad Blues
TTITLE6=It Was Rainin'
TTITLE7=Bladie Mae
TTITLE8=Walking Thru The Park
EXTD=
EXTT0=
EXTT1=
EXTT2=
EXTT3=
EXTT4=
EXTT5=
EXTT6=
EXTT7=
EXTT8=
PLAYORDER=
